{
.appVersion = "3343";
.formatVersion = 3;
DisplayStrings = (
blasted,
"ABCDEFGHIJKLMNOPQRSTUVWXYZabcdefghijklmnopqrstuvwxyz/v.001",
"/a.001",
ad
);
axes = (
{
name = Weight;
tag = wght;
}
);
date = "2025-06-22 16:38:40 +0000";
familyName = "Brodine-italic";
fontMaster = (
{
axesValues = (
50
);
id = m002;
metricValues = (
{
over = 16;
pos = 700;
},
{
over = 16;
pos = 650;
},
{
over = 16;
pos = 450;
},
{
over = -16;
},
{
over = -16;
pos = -200;
},
{
pos = 12;
}
);
name = Italic;
userData = {
GSCornerRadius = 20;
GSOffsetHorizontal = -20;
GSOffsetVertical = -20;
};
}
);
glyphs = (
{
glyphname = A;
lastChange = "2025-07-14 15:42:01 +0000";
layers = (
{
layerId = m002;
shapes = (
{
closed = 1;
nodes = (
(38,0,l),
(423,650,l),
(342,650,l),
(-45,0,l)
);
},
{
closed = 1;
nodes = (
(427,650,l),
(346,650,l),
(464,0,l),
(547,0,l)
);
},
{
closed = 1;
nodes = (
(442,197,l),
(458,272,l),
(168,272,l),
(152,197,l)
);
}
);
width = 640;
}
);
unicode = 65;
},
{
glyphname = B;
lastChange = "2025-07-14 15:42:01 +0000";
layers = (
{
layerId = m002;
shapes = (
{
closed = 1;
nodes = (
(-12,0,l),
(336,0,ls),
(443,0,o),
(557,74,o),
(584,201,cs),
(600,276,o),
(565,337,o),
(506,367,c),
(546,397,o),
(573,435,o),
(583,479,cs),
(602,569,o),
(549,650,o),
(414,650,cs),
(126,650,l)
);
},
{
closed = 1;
nodes = (
(144,311,l),
(402,311,ls),
(461,311,o),
(505,255,o),
(493,196,cs),
(476,117,o),
(411,75,o),
(352,75,cs),
(94,75,l)
);
},
{
closed = 1;
nodes = (
(200,575,l),
(398,575,ls),
(485,575,o),
(503,526,o),
(494,484,cs),
(483,435,o),
(445,387,o),
(358,386,c),
(160,386,l)
);
}
);
width = 641;
}
);
unicode = 66;
},
{
glyphname = C;
lastChange = "2025-07-14 15:42:01 +0000";
layers = (
{
layerId = m002;
shapes = (
{
closed = 1;
nodes = (
(463,99,o),
(385,57,o),
(283,57,cs),
(150,57,o),
(79,137,o),
(119,324,cs),
(159,511,o),
(264,591,o),
(397,591,cs),
(499,591,o),
(559,549,o),
(570,455,c),
(660,492,l),
(639,614,o),
(549,666,o),
(413,666,cs),
(233,666,o),
(81,567,o),
(29,324,cs),
(-23,81,o),
(87,-18,o),
(267,-18,cs),
(403,-18,o),
(515,34,o),
(588,156,c),
(514,193,l)
);
}
);
width = 640;
}
);
unicode = 67;
},
{
glyphname = D;
lastChange = "2025-07-14 15:42:01 +0000";
layers = (
{
layerId = m002;
shapes = (
{
closed = 1;
nodes = (
(-12,2,l),
(78,2,l),
(216,650,l),
(126,650,l)
);
},
{
closed = 1;
nodes = (
(373,575,ls),
(496,575,o),
(558,480,o),
(525,323,cs),
(490,160,o),
(390,75,o),
(267,75,cs),
(18,75,l),
(2,0,l),
(251,0,ls),
(411,0,o),
(568,106,o),
(615,323,cs),
(659,534,o),
(549,650,o),
(389,650,cs),
(140,650,l),
(124,575,l)
);
}
);
width = 640;
}
);
unicode = 68;
},
{
glyphname = E;
lastChange = "2025-07-14 15:42:01 +0000";
layers = (
{
layerId = m002;
shapes = (
{
closed = 1;
nodes = (
(-12,0,l),
(382,0,l),
(398,75,l),
(94,75,l),
(144,312,l),
(311,312,l),
(327,387,l),
(160,387,l),
(200,575,l),
(504,575,l),
(520,650,l),
(126,650,l)
);
}
);
width = 480;
}
);
unicode = 69;
},
{
glyphname = F;
lastChange = "2025-07-14 15:42:01 +0000";
layers = (
{
layerId = m002;
shapes = (
{
closed = 1;
nodes = (
(-12,0,l),
(78,0,l),
(136,272,l),
(323,272,l),
(339,347,l),
(152,347,l),
(200,575,l),
(504,575,l),
(520,650,l),
(126,650,l)
);
}
);
width = 480;
}
);
unicode = 70;
},
{
glyphname = G;
lastChange = "2025-07-14 15:42:01 +0000";
layers = (
{
layerId = m002;
shapes = (
{
closed = 1;
nodes = (
(425,-2,l),
(515,-2,l),
(589,347,l),
(499,347,l)
);
},
{
closed = 1;
nodes = (
(573,272,l),
(589,347,l),
(391,347,l),
(375,272,l)
);
},
{
closed = 1;
nodes = (
(450,116,o),
(353,57,o),
(263,57,cs),
(150,57,o),
(79,137,o),
(119,324,cs),
(159,511,o),
(264,591,o),
(377,591,cs),
(459,591,o),
(519,549,o),
(530,455,c),
(620,492,l),
(599,614,o),
(509,666,o),
(393,666,cs),
(233,666,o),
(81,567,o),
(29,324,cs),
(-23,81,o),
(87,-18,o),
(247,-18,cs),
(370,-18,o),
(480,54,o),
(553,176,c),
(473,223,l)
);
}
);
width = 640;
}
);
unicode = 71;
},
{
glyphname = H;
lastChange = "2025-07-14 15:42:01 +0000";
layers = (
{
layerId = m002;
shapes = (
{
closed = 1;
nodes = (
(-17,2,l),
(73,2,l),
(211,650,l),
(121,650,l)
);
},
{
closed = 1;
nodes = (
(429,2,l),
(519,2,l),
(657,650,l),
(567,650,l)
);
},
{
closed = 1;
nodes = (
(513,299,l),
(529,374,l),
(76,374,l),
(60,299,l)
);
}
);
width = 640;
}
);
unicode = 72;
},
{
glyphname = I;
lastChange = "2025-07-14 15:42:01 +0000";
layers = (
{
layerId = m002;
shapes = (
{
closed = 1;
nodes = (
(104,650,l),
(-34,0,l),
(56,0,l),
(194,650,l)
);
}
);
width = 160;
}
);
unicode = 73;
},
{
glyphname = J;
lastChange = "2025-07-14 15:42:01 +0000";
layers = (
{
layerId = m002;
shapes = (
{
closed = 0;
nodes = (
(386,231,l),
(476,653,l)
);
},
{
closed = 1;
nodes = (
(476,653,l),
(122,653,l),
(106,578,l),
(370,578,l),
(296,231,ls),
(269,102,o),
(208,59,o),
(125,59,cs),
(83,59,o),
(52,76,o),
(32,97,c),
(-27,33,l),
(7,1,o),
(46,-16,o),
(109,-16,cs),
(239,-16,o),
(348,48,o),
(386,231,cs)
);
}
);
width = 480;
}
);
unicode = 74;
},
{
glyphname = K;
lastChange = "2025-07-14 15:42:01 +0000";
layers = (
{
layerId = m002;
shapes = (
{
closed = 1;
nodes = (
(-12,2,l),
(78,2,l),
(216,650,l),
(126,650,l)
);
},
{
closed = 1;
nodes = (
(329,430,l),
(237,430,l),
(417,0,l),
(509,0,l)
);
},
{
closed = 1;
nodes = (
(49,236,l),
(116,236,l),
(580,650,l),
(479,650,l),
(57,273,l)
);
}
);
width = 600;
}
);
unicode = 75;
},
{
glyphname = L;
lastChange = "2025-07-14 15:42:01 +0000";
layers = (
{
layerId = m002;
shapes = (
{
closed = 1;
nodes = (
(-12,2,l),
(-8,2,l),
(-8,0,l),
(391,0,l),
(407,75,l),
(94,75,l),
(216,650,l),
(126,650,l)
);
}
);
width = 480;
}
);
unicode = 76;
},
{
glyphname = M;
lastChange = "2025-07-14 15:42:01 +0000";
layers = (
{
layerId = m002;
shapes = (
{
closed = 1;
nodes = (
(78,1,l),
(184,501,l),
(172,501,l),
(288,0,l),
(374,0,l),
(701,496,l),
(689,496,l),
(584,1,l),
(674,1,l),
(812,650,l),
(707,650,l),
(703,648,l),
(349,112,l),
(361,112,l),
(235,648,l),
(231,650,l),
(126,650,l),
(-12,1,l)
);
}
);
width = 800;
}
);
unicode = 77;
},
{
glyphname = N;
lastChange = "2025-07-14 15:42:01 +0000";
layers = (
{
layerId = m002;
shapes = (
{
closed = 1;
nodes = (
(-12,0,l),
(78,0,l),
(184,501,l),
(424,0,l),
(514,0,l),
(652,650,l),
(562,650,l),
(456,151,l),
(216,650,l),
(126,650,l)
);
}
);
width = 640;
}
);
unicode = 78;
},
{
glyphname = O;
lastChange = "2025-07-14 15:42:01 +0000";
layers = (
{
layerId = m002;
shapes = (
{
closed = 1;
nodes = (
(159,511,o),
(264,591,o),
(377,591,cs),
(490,591,o),
(561,511,o),
(521,325,cs),
(481,139,o),
(376,59,o),
(263,59,cs),
(150,59,o),
(79,139,o),
(119,325,cs)
);
},
{
closed = 1;
nodes = (
(-22,83,o),
(88,-16,o),
(248,-16,cs),
(408,-16,o),
(560,83,o),
(611,325,cs),
(662,567,o),
(552,666,o),
(392,666,cs),
(232,666,o),
(80,567,o),
(29,325,cs)
);
}
);
width = 640;
}
);
unicode = 79;
},
{
glyphname = P;
lastChange = "2025-07-14 15:42:01 +0000";
layers = (
{
layerId = m002;
shapes = (
{
closed = 1;
nodes = (
(78,0,l),
(216,650,l),
(126,650,l),
(-12,0,l)
);
},
{
closed = 1;
nodes = (
(51,230,l),
(230,230,ls),
(337,230,o),
(463,314,o),
(490,441,cs),
(517,568,o),
(426,650,o),
(319,650,cs),
(140,650,l),
(124,575,l),
(303,575,ls),
(362,575,o),
(416,520,o),
(400,441,cs),
(383,362,o),
(305,305,o),
(246,305,cs),
(67,305,l)
);
}
);
width = 480;
}
);
unicode = 80;
},
{
glyphname = Q;
lastChange = "2025-07-14 15:42:01 +0000";
layers = (
{
layerId = m002;
shapes = (
{
closed = 1;
nodes = (
(163,511,o),
(268,591,o),
(381,591,cs),
(494,591,o),
(565,511,o),
(525,325,cs),
(486,139,o),
(381,59,o),
(268,59,cs),
(155,59,o),
(84,139,o),
(123,325,cs)
);
},
{
closed = 1;
nodes = (
(-18,83,o),
(92,-16,o),
(252,-16,cs),
(412,-16,o),
(564,83,o),
(615,325,cs),
(667,567,o),
(557,666,o),
(397,666,cs),
(237,666,o),
(85,567,o),
(33,325,cs)
);
},
{
closed = 1;
nodes = (
(450,-57,l),
(528,-2,l),
(476,82,l),
(399,27,l)
);
}
);
width = 640;
}
);
unicode = 81;
},
{
glyphname = R;
lastChange = "2025-07-14 15:42:01 +0000";
layers = (
{
layerId = m002;
shapes = (
{
closed = 1;
nodes = (
(196,298,l),
(299,0,l),
(392,0,l),
(289,298,l)
);
},
{
closed = 1;
nodes = (
(78,0,l),
(216,650,l),
(126,650,l),
(-12,0,l)
);
},
{
closed = 1;
nodes = (
(51,230,l),
(230,230,ls),
(337,230,o),
(463,314,o),
(490,441,cs),
(517,568,o),
(426,650,o),
(319,650,cs),
(140,650,l),
(124,575,l),
(303,575,ls),
(362,575,o),
(416,520,o),
(400,441,cs),
(383,362,o),
(305,305,o),
(246,305,cs),
(67,305,l)
);
}
);
width = 480;
}
);
unicode = 82;
},
{
glyphname = S;
lastChange = "2025-07-14 15:42:01 +0000";
layers = (
{
layerId = m002;
shapes = (
{
closed = 1;
nodes = (
(238,665,o),
(129,620,o),
(102,493,cs),
(81,398,o),
(151,344,o),
(198,321,cs),
(253,294,ls),
(307,267,o),
(362,258,o),
(344,173,cs),
(330,107,o),
(276,61,o),
(189,61,cs),
(134,61,o),
(99,73,o),
(69,112,c),
(6,51,l),
(53,4,o),
(100,-14,o),
(187,-14,cs),
(276,-14,o),
(405,40,o),
(434,173,cs),
(457,285,o),
(394,326,o),
(307,370,cs),
(253,397,ls),
(195,426,o),
(185,464,o),
(192,493,cs),
(205,556,o),
(244,590,o),
(304,590,cs),
(347,590,o),
(398,586,o),
(431,556,c),
(478,617,l),
(447,644,o),
(398,665,o),
(320,665,cs)
);
}
);
width = 480;
}
);
unicode = 83;
},
{
glyphname = T;
lastChange = "2025-07-14 15:42:01 +0000";
layers = (
{
layerId = m002;
shapes = (
{
closed = 1;
nodes = (
(126,2,l),
(216,2,l),
(354,650,l),
(264,650,l)
);
},
{
closed = 0;
nodes = (
(528,650,l),
(90,650,l)
);
},
{
closed = 1;
nodes = (
(90,650,l),
(74,575,l),
(512,575,l),
(528,650,l)
);
}
);
width = 480;
}
);
unicode = 84;
},
{
glyphname = U;
lastChange = "2025-07-14 15:42:01 +0000";
layers = (
{
layerId = m002;
shapes = (
{
closed = 1;
nodes = (
(566,650,l),
(656,650,l),
(571,249,ls),
(534,76,o),
(419,-18,o),
(249,-18,cs),
(79,-18,o),
(4,76,o),
(41,249,cs),
(126,650,l),
(216,650,l),
(128,235,ls),
(104,121,o),
(153,59,o),
(265,59,cs),
(377,59,o),
(454,121,o),
(478,235,cs)
);
}
);
width = 640;
}
);
unicode = 85;
},
{
glyphname = V;
lastChange = "2025-07-14 15:42:01 +0000";
layers = (
{
layerId = m002;
shapes = (
{
closed = 1;
nodes = (
(213,0,l),
(289,0,l),
(692,650,l),
(607,650,l),
(263,98,l),
(281,98,l),
(177,650,l),
(86,650,l)
);
}
);
width = 640;
}
);
unicode = 86;
},
{
glyphname = W;
lastChange = "2025-07-14 15:42:01 +0000";
layers = (
{
layerId = m002;
shapes = (
{
closed = 1;
nodes = (
(117,0,l),
(196,0,l),
(443,522,l),
(431,521,l),
(455,0,l),
(534,0,l),
(860,650,l),
(781,650,l),
(517,133,l),
(528,133,l),
(503,650,l),
(424,650,l),
(180,133,l),
(192,133,l),
(156,650,l),
(77,650,l)
);
}
);
width = 800;
}
);
unicode = 87;
},
{
glyphname = X;
lastChange = "2025-07-14 15:42:01 +0000";
layers = (
{
layerId = m002;
shapes = (
{
closed = 1;
nodes = (
(209,650,l),
(126,650,l),
(295,1,l),
(378,1,l)
);
},
{
closed = 1;
nodes = (
(261,307,l),
(496,650,l),
(413,650,l),
(239,396,l)
);
},
{
closed = 1;
nodes = (
(235,396,l),
(-36,1,l),
(47,1,l),
(257,307,l)
);
}
);
width = 480;
}
);
unicode = 88;
},
{
glyphname = Y;
lastChange = "2025-07-14 15:42:01 +0000";
layers = (
{
layerId = m002;
shapes = (
{
closed = 1;
nodes = (
(190,303,l),
(126,0,l),
(216,0,l),
(280,303,l),
(528,650,l),
(438,650,l),
(245,381,l),
(259,381,l),
(180,650,l),
(90,650,l)
);
}
);
width = 480;
}
);
unicode = 89;
},
{
glyphname = Z;
lastChange = "2025-07-14 15:42:01 +0000";
layers = (
{
layerId = m002;
shapes = (
{
closed = 1;
nodes = (
(-22,75,l),
(86,75,l),
(500,575,l),
(392,575,l)
);
},
{
closed = 1;
nodes = (
(-22,75,l),
(-38,0,l),
(380,0,l),
(396,75,l)
);
},
{
closed = 1;
nodes = (
(100,650,l),
(84,575,l),
(502,575,l),
(518,650,l)
);
}
);
width = 480;
}
);
unicode = 90;
},
{
glyphname = a;
lastChange = "2025-07-14 15:58:36 +0000";
layers = (
{
background = {
shapes = (
{
closed = 1;
nodes = (
(451,311,l),
(481,450,l),
(395,450,l),
(365,311,l)
);
},
{
closed = 1;
nodes = (
(69,311,l),
(33,144,ls),
(7,18,o),
(83,-16,o),
(170,-16,cs),
(296,-16,o),
(390,103,o),
(420,244,c),
(351,244,l),
(325,126,o),
(298,50,o),
(195,50,cs),
(146,50,o),
(103,66,o),
(119,144,cs),
(155,311,l)
);
},
{
closed = 1;
nodes = (
(365,311,l),
(311,56,l),
(320,52,l),
(319,0,l),
(385,0,l),
(451,311,l)
);
},
{
closed = 1;
nodes = (
(295,0,l),
(381,0,l),
(447,306,ls),
(473,432,o),
(397,466,o),
(310,466,cs),
(184,466,o),
(90,347,o),
(60,206,c),
(129,206,l),
(155,324,o),
(182,400,o),
(285,400,cs),
(334,400,o),
(377,384,o),
(361,306,cs)
);
}
);
};
layerId = m002;
shapes = (
{
closed = 1;
nodes = (
(419,426,o),
(335,466,o),
(256,466,cs),
(149,466,o),
(42,403,o),
(4,226,cs),
(-31,59,o),
(47,-13,o),
(154,-13,cs),
(253,-13,o),
(341,49,o),
(377,216,c),
(320,226,l),
(295,107,o),
(247,53,o),
(168,53,cs),
(109,53,o),
(55,107,o),
(80,226,cs),
(107,355,o),
(183,400,o),
(242,400,cs),
(321,400,o),
(347,355,o),
(320,226,c),
(385,266,l)
);
},
{
closed = 1;
nodes = (
(368,451,l),
(282,46,l),
(293,52,l),
(292,0,l),
(358,0,l),
(454,451,l)
);
}
);
width = 480;
}
);
unicode = 97;
},
{
glyphname = b;
lastChange = "2025-07-14 15:42:01 +0000";
layers = (
{
layerId = m002;
shapes = (
{
closed = 1;
nodes = (
(125,700,l),
(-24,0,l),
(42,0,l),
(63,52,l),
(72,46,l),
(211,700,l)
);
},
{
closed = 1;
nodes = (
(110,226,l),
(137,355,o),
(183,400,o),
(262,400,cs),
(321,400,o),
(377,355,o),
(350,226,cs),
(325,107,o),
(247,53,o),
(188,53,cs),
(109,53,o),
(85,107,o),
(110,226,c),
(49,216,l),
(13,49,o),
(75,-13,o),
(174,-13,cs),
(281,-13,o),
(391,59,o),
(426,226,cs),
(464,403,o),
(383,466,o),
(276,466,cs),
(197,466,o),
(97,426,o),
(63,266,c)
);
}
);
width = 480;
}
);
unicode = 98;
},
{
glyphname = c;
lastChange = "2025-07-14 15:57:00 +0000";
layers = (
{
layerId = m002;
shapes = (
{
closed = 1;
nodes = (
(209,399,o),
(131,347,o),
(105,225,cs),
(79,103,o),
(134,51,o),
(233,51,cs),
(296,51,o),
(349,79,o),
(375,113,c),
(429,78,l),
(389,20,o),
(295,-15,o),
(219,-15,cs),
(76,-15,o),
(-7,57,o),
(29,225,cs),
(65,393,o),
(179,465,o),
(321,465,cs),
(397,465,o),
(467,430,o),
(491,372,c),
(423,337,l),
(411,371,o),
(370,399,o),
(307,399,cs)
);
}
);
width = 480;
}
);
unicode = 99;
},
{
glyphname = d;
lastChange = "2025-07-14 15:42:01 +0000";
layers = (
{
layerId = m002;
shapes = (
{
closed = 1;
nodes = (
(282,46,l),
(293,52,l),
(292,0,l),
(358,0,l),
(507,700,l),
(421,700,l)
);
},
{
closed = 1;
nodes = (
(419,426,o),
(335,466,o),
(256,466,cs),
(149,466,o),
(42,403,o),
(4,226,cs),
(-31,59,o),
(47,-13,o),
(154,-13,cs),
(253,-13,o),
(341,49,o),
(377,216,c),
(320,226,l),
(295,107,o),
(247,53,o),
(168,53,cs),
(109,53,o),
(55,107,o),
(80,226,cs),
(107,355,o),
(183,400,o),
(242,400,cs),
(321,400,o),
(347,355,o),
(320,226,c),
(385,266,l)
);
}
);
width = 480;
}
);
unicode = 100;
},
{
glyphname = e;
lastChange = "2025-07-14 15:42:01 +0000";
layers = (
{
layerId = m002;
shapes = (
{
closed = 1;
nodes = (
(60,196,l),
(394,196,l),
(408,262,l),
(74,262,l)
);
},
{
closed = 1;
nodes = (
(347,113,l),
(319,81,o),
(282,53,o),
(213,53,cs),
(134,53,o),
(78,97,o),
(105,226,cs),
(135,365,o),
(208,399,o),
(277,399,cs),
(346,399,o),
(405,365,o),
(375,226,cs),
(372,212,o),
(370,208,o),
(365,196,c),
(442,196,l),
(446,209,o),
(448,212,o),
(451,226,cs),
(491,413,o),
(398,465,o),
(291,465,cs),
(184,465,o),
(69,415,o),
(29,226,cs),
(-9,49,o),
(82,-13,o),
(199,-13,cs),
(316,-13,o),
(367,41,o),
(398,76,c)
);
}
);
width = 480;
}
);
unicode = 101;
},
{
glyphname = f;
lastChange = "2025-07-14 15:42:01 +0000";
layers = (
{
layerId = m002;
shapes = (
{
closed = 1;
nodes = (
(212,654,o),
(170,624,o),
(154,547,cs),
(37,0,l),
(123,0,l),
(240,548,ls),
(245,573,o),
(258,586,o),
(288,586,cs),
(354,586,l),
(369,654,l),
(303,654,ls)
);
},
{
closed = 1;
nodes = (
(311,384,l),
(325,450,l),
(47,450,l),
(33,384,l)
);
}
);
width = 320;
}
);
unicode = 102;
},
{
glyphname = g;
lastChange = "2025-07-14 15:45:07 +0000";
layers = (
{
layerId = m002;
shapes = (
{
closed = 1;
nodes = (
(279,-79,o),
(221,-137,o),
(152,-137,c),
(111,-137,o),
(90,-111,o),
(74,-81,c),
(-12,-123,l),
(14,-180,o),
(62,-213,o),
(136,-213,cs),
(243,-213,o),
(355,-127,o),
(382,0,c),
(296,0,l)
);
},
{
closed = 1;
nodes = (
(382,0,l),
(478,453,l),
(412,453,l),
(391,401,l),
(383,407,l),
(296,0,l)
);
},
{
closed = 1;
nodes = (
(344,227,l),
(317,98,o),
(251,53,o),
(192,53,cs),
(133,53,o),
(77,98,o),
(104,227,cs),
(130,346,o),
(207,400,o),
(266,400,cs),
(325,400,o),
(370,346,o),
(344,227,c),
(405,237,l),
(441,404,o),
(379,466,o),
(280,466,cs),
(173,466,o),
(64,394,o),
(28,227,cs),
(-9,50,o),
(71,-13,o),
(178,-13,cs),
(257,-13,o),
(358,27,o),
(392,187,c)
);
}
);
width = 480;
}
);
unicode = 103;
},
{
glyphname = h;
lastChange = "2025-07-14 15:42:01 +0000";
layers = (
{
layerId = m002;
shapes = (
{
closed = 1;
nodes = (
(271,0,l),
(357,0,l),
(424,316,ls),
(448,432,o),
(382,466,o),
(285,466,cs),
(138,466,o),
(60,363,o),
(26,207,c),
(98,206,l),
(124,324,o),
(152,400,o),
(261,400,cs),
(320,400,o),
(352,384,o),
(338,316,cs)
);
},
{
closed = 1;
nodes = (
(203,700,l),
(117,700,l),
(-31,0,l),
(55,0,l)
);
}
);
width = 480;
}
);
unicode = 104;
},
{
glyphname = i;
lastChange = "2025-07-14 15:42:01 +0000";
layers = (
{
layerId = m002;
shapes = (
{
closed = 1;
nodes = (
(153,501,o),
(179,522,o),
(185,554,cs),
(192,585,o),
(175,606,o),
(144,606,cs),
(112,606,o),
(87,585,o),
(80,554,cs),
(74,522,o),
(90,501,o),
(122,501,cs)
);
},
{
closed = 1;
nodes = (
(68,450,l),
(-27,0,l),
(59,0,l),
(154,450,l)
);
}
);
width = 160;
}
);
unicode = 105;
},
{
glyphname = j;
lastChange = "2025-07-14 15:42:01 +0000";
layers = (
{
layerId = m002;
shapes = (
{
closed = 1;
nodes = (
(-192,-167,l),
(-166,-200,o),
(-129,-216,o),
(-85,-216,cs),
(10,-216,o),
(50,-148,o),
(72,-45,cs),
(177,450,l),
(91,450,l),
(-14,-45,ls),
(-24,-94,o),
(-42,-130,o),
(-78,-130,cs),
(-98,-130,o),
(-117,-124,o),
(-122,-111,c)
);
},
{
closed = 1;
nodes = (
(176,501,o),
(202,522,o),
(208,554,cs),
(215,585,o),
(198,606,o),
(167,606,cs),
(135,606,o),
(110,585,o),
(103,554,cs),
(97,522,o),
(113,501,o),
(145,501,cs)
);
}
);
width = 160;
}
);
unicode = 106;
},
{
glyphname = k;
lastChange = "2025-07-14 15:42:01 +0000";
layers = (
{
layerId = m002;
shapes = (
{
closed = 1;
nodes = (
(-25,0,l),
(61,0,l),
(209,700,l),
(123,700,l)
);
},
{
closed = 1;
nodes = (
(290,321,l),
(203,321,l),
(293,0,l),
(380,0,l)
);
},
{
closed = 1;
nodes = (
(4,118,l),
(76,118,l),
(447,450,l),
(341,450,l),
(12,155,l)
);
}
);
width = 480;
}
);
unicode = 107;
},
{
glyphname = l;
lastChange = "2025-07-14 15:42:01 +0000";
layers = (
{
layerId = m002;
shapes = (
{
closed = 1;
nodes = (
(111,700,l),
(-37,0,l),
(49,0,l),
(197,700,l)
);
}
);
width = 160;
}
);
unicode = 108;
},
{
glyphname = m;
lastChange = "2025-07-14 15:42:01 +0000";
layers = (
{
layerId = m002;
shapes = (
{
closed = 1;
nodes = (
(169,394,l),
(160,398,l),
(161,450,l),
(95,450,l),
(-1,0,l),
(85,0,l)
);
},
{
closed = 1;
nodes = (
(307,0,l),
(393,0,l),
(459,306,ls),
(485,432,o),
(397,466,o),
(310,466,cs),
(184,466,o),
(90,347,o),
(60,206,c),
(129,206,l),
(155,324,o),
(182,400,o),
(285,400,cs),
(334,400,o),
(389,384,o),
(373,306,cs)
);
},
{
closed = 1;
nodes = (
(615,0,l),
(701,0,l),
(767,306,ls),
(793,432,o),
(717,466,o),
(630,466,cs),
(504,466,o),
(398,347,o),
(368,206,c),
(437,206,l),
(463,324,o),
(502,400,o),
(605,400,cs),
(654,400,o),
(697,384,o),
(681,306,cs)
);
}
);
width = 800;
}
);
unicode = 109;
},
{
glyphname = n;
lastChange = "2025-07-14 15:42:01 +0000";
layers = (
{
layerId = m002;
shapes = (
{
closed = 1;
nodes = (
(295,0,l),
(381,0,l),
(447,306,ls),
(473,432,o),
(397,466,o),
(310,466,cs),
(184,466,o),
(90,347,o),
(60,206,c),
(129,206,l),
(155,324,o),
(182,400,o),
(285,400,cs),
(334,400,o),
(377,384,o),
(361,306,cs)
);
},
{
closed = 1;
nodes = (
(169,394,l),
(160,398,l),
(161,450,l),
(95,450,l),
(-1,0,l),
(85,0,l)
);
}
);
width = 480;
}
);
unicode = 110;
},
{
glyphname = o;
lastChange = "2025-07-14 15:42:01 +0000";
layers = (
{
layerId = m002;
shapes = (
{
closed = 1;
nodes = (
(296,-13,o),
(416,59,o),
(451,226,cs),
(486,393,o),
(398,465,o),
(291,465,cs),
(184,465,o),
(65,395,o),
(29,226,cs),
(-6,59,o),
(82,-13,o),
(189,-13,cs)
);
},
{
closed = 1;
nodes = (
(134,53,o),
(80,107,o),
(105,226,cs),
(130,345,o),
(208,399,o),
(277,399,cs),
(346,399,o),
(400,345,o),
(375,226,cs),
(350,107,o),
(272,53,o),
(203,53,cs)
);
}
);
width = 480;
}
);
unicode = 111;
},
{
glyphname = p;
lastChange = "2025-07-14 15:42:01 +0000";
layers = (
{
layerId = m002;
shapes = (
{
closed = 1;
nodes = (
(193,407,l),
(182,401,l),
(183,453,l),
(117,453,l),
(-22,-200,l),
(64,-200,l)
);
},
{
closed = 1;
nodes = (
(56,27,o),
(140,-13,o),
(219,-13,cs),
(326,-13,o),
(433,50,o),
(471,227,cs),
(506,394,o),
(428,466,o),
(321,466,cs),
(222,466,o),
(134,404,o),
(98,237,c),
(155,227,l),
(180,346,o),
(248,400,o),
(307,400,cs),
(366,400,o),
(420,346,o),
(395,227,cs),
(368,98,o),
(292,53,o),
(233,53,cs),
(174,53,o),
(128,98,o),
(155,227,c),
(90,187,l)
);
}
);
width = 480;
}
);
unicode = 112;
},
{
glyphname = q;
lastChange = "2025-07-14 15:42:01 +0000";
layers = (
{
layerId = m002;
shapes = (
{
closed = 1;
nodes = (
(360,-200,l),
(499,453,l),
(433,453,l),
(412,401,l),
(403,407,l),
(274,-200,l)
);
},
{
closed = 1;
nodes = (
(365,227,l),
(338,98,o),
(272,53,o),
(213,53,cs),
(154,53,o),
(98,98,o),
(125,227,cs),
(150,346,o),
(228,400,o),
(287,400,cs),
(346,400,o),
(390,346,o),
(365,227,c),
(426,237,l),
(462,404,o),
(400,466,o),
(301,466,cs),
(194,466,o),
(84,394,o),
(49,227,cs),
(11,50,o),
(92,-13,o),
(199,-13,cs),
(278,-13,o),
(378,27,o),
(412,187,c)
);
}
);
width = 480;
}
);
unicode = 113;
},
{
glyphname = r;
lastChange = "2025-07-14 15:42:01 +0000";
layers = (
{
layerId = m002;
shapes = (
{
closed = 1;
nodes = (
(344,384,l),
(358,450,l),
(310,450,l),
(184,450,o),
(101,381,o),
(71,244,c),
(123,244,l),
(147,356,o),
(238,384,o),
(296,384,c)
);
},
{
closed = 1;
nodes = (
(165,393,l),
(156,397,l),
(157,449,l),
(91,449,l),
(-5,0,l),
(81,0,l)
);
}
);
width = 320;
}
);
unicode = 114;
},
{
glyphname = s;
lastChange = "2025-07-14 15:59:07 +0000";
layers = (
{
layerId = m002;
shapes = (
{
closed = 1;
nodes = (
(124,450,o),
(68,422,o),
(51,339,cs),
(33,257,o),
(83,226,o),
(105,211,cs),
(143,183,o),
(220,180,o),
(206,115,cs),
(196,68,o),
(162,50,o),
(123,51,cs),
(71,52,o),
(51,70,o),
(26,90,c),
(-19,28,l),
(16,0,o),
(46,-15,o),
(109,-15,cs),
(163,-15,o),
(261,13,o),
(283,118,cs),
(306,226,o),
(202,248,o),
(162,272,cs),
(134,289,o),
(119,301,o),
(127,339,cs),
(132,363,o),
(146,384,o),
(184,384,cs),
(203,384,o),
(241,383,o),
(323,383,c),
(337,450,l),
(303,450,o),
(252,450,o),
(202,450,cs)
);
}
);
width = 320;
}
);
unicode = 115;
},
{
glyphname = t;
lastChange = "2025-07-14 15:42:01 +0000";
layers = (
{
layerId = m002;
shapes = (
{
closed = 1;
nodes = (
(236,0,l),
(251,68,l),
(185,68,ls),
(155,68,o),
(148,81,o),
(153,106,cs),
(256,589,l),
(170,589,l),
(67,107,ls),
(51,30,o),
(78,0,o),
(170,0,cs)
);
},
{
closed = 1;
nodes = (
(318,384,l),
(332,450,l),
(54,450,l),
(40,384,l)
);
}
);
width = 320;
}
);
unicode = 116;
},
{
glyphname = u;
lastChange = "2025-07-14 15:42:01 +0000";
layers = (
{
layerId = m002;
shapes = (
{
closed = 1;
nodes = (
(185,450,l),
(99,450,l),
(33,144,ls),
(7,18,o),
(83,-16,o),
(170,-16,cs),
(296,-16,o),
(390,103,o),
(420,244,c),
(351,244,l),
(325,126,o),
(298,50,o),
(195,50,cs),
(146,50,o),
(103,66,o),
(119,144,cs)
);
},
{
closed = 1;
nodes = (
(311,56,l),
(320,52,l),
(319,0,l),
(385,0,l),
(481,450,l),
(395,450,l)
);
}
);
width = 480;
}
);
unicode = 117;
},
{
glyphname = v;
lastChange = "2025-07-14 15:42:01 +0000";
layers = (
{
layerId = m002;
shapes = (
{
closed = 1;
nodes = (
(154,1,l),
(230,1,l),
(501,450,l),
(422,450,l),
(196,70,l),
(218,70,l),
(155,450,l),
(75,450,l)
);
}
);
width = 480;
}
);
unicode = 118;
},
{
glyphname = w;
lastChange = "2025-07-14 15:42:01 +0000";
layers = (
{
layerId = m002;
shapes = (
{
closed = 1;
nodes = (
(97,1,l),
(173,1,l),
(349,358,l),
(330,358,l),
(359,1,l),
(435,1,l),
(660,450,l),
(584,450,l),
(418,117,l),
(423,117,l),
(397,450,l),
(321,450,l),
(157,117,l),
(167,117,l),
(152,450,l),
(76,450,l)
);
}
);
width = 640;
}
);
unicode = 119;
},
{
glyphname = x;
lastChange = "2025-07-14 15:42:01 +0000";
layers = (
{
layerId = m002;
shapes = (
{
closed = 1;
nodes = (
(308,1,l),
(397,1,l),
(172,450,l),
(83,450,l)
);
},
{
closed = 1;
nodes = (
(75,0,l),
(257,213,l),
(222,275,l),
(-14,0,l)
);
},
{
closed = 1;
nodes = (
(264,213,l),
(469,450,l),
(380,450,l),
(229,275,l)
);
}
);
width = 480;
}
);
unicode = 120;
},
{
glyphname = y;
lastChange = "2025-07-14 15:53:31 +0000";
layers = (
{
layerId = m002;
shapes = (
{
closed = 1;
nodes = (
(293,-201,o),
(335,-171,o),
(351,-94,cs),
(468,453,l),
(382,453,l),
(265,-95,ls),
(260,-120,o),
(247,-133,o),
(217,-133,cs),
(122,-133,l),
(107,-201,l),
(202,-201,ls)
);
},
{
closed = 1;
nodes = (
(172,450,l),
(86,450,l),
(20,144,ls),
(-6,18,o),
(70,-16,o),
(157,-16,cs),
(283,-16,o),
(377,103,o),
(407,244,c),
(338,244,l),
(312,126,o),
(285,50,o),
(182,50,cs),
(133,50,o),
(90,66,o),
(106,144,cs)
);
}
);
width = 480;
}
);
unicode = 121;
},
{
glyphname = z;
lastChange = "2025-07-14 15:42:01 +0000";
layers = (
{
layerId = m002;
shapes = (
{
closed = 1;
nodes = (
(-13,66,l),
(75,66,l),
(333,384,l),
(245,384,l)
);
},
{
closed = 1;
nodes = (
(-13,66,l),
(-27,0,l),
(251,0,l),
(265,66,l)
);
},
{
closed = 1;
nodes = (
(69,450,l),
(55,384,l),
(333,384,l),
(347,450,l)
);
}
);
width = 320;
}
);
unicode = 122;
},
{
glyphname = a.001;
lastChange = "2025-07-14 15:57:54 +0000";
layers = (
{
layerId = m002;
shapes = (
{
closed = 1;
nodes = (
(154,307,o),
(182,400,o),
(285,400,cs),
(382,400,o),
(366,327,o),
(359,298,cs),
(355,282,o),
(337,197,o),
(334,184,cs),
(313,95,o),
(280,50,o),
(195,50,cs),
(146,50,o),
(102,66,o),
(119,144,cs),
(152,297,ls)
);
},
{
closed = 1;
nodes = (
(481,450,l),
(395,450,l),
(387,412,l),
(363,445,o),
(324,466,o),
(272,466,cs),
(185,466,o),
(94,433,o),
(67,306,cs),
(33,144,ls),
(7,18,o),
(83,-16,o),
(170,-16,cs),
(228,-16,o),
(279,10,o),
(320,50,c),
(319,0,l),
(385,0,l),
(451,311,l)
);
}
);
width = 480;
}
);
},
{
glyphname = v.001;
lastChange = "2025-07-14 15:42:01 +0000";
layers = (
{
layerId = m002;
shapes = (
{
closed = 1;
nodes = (
(154,1,l),
(230,1,l),
(501,450,l),
(422,450,l),
(196,70,l),
(218,70,l),
(155,450,l),
(75,450,l)
);
}
);
width = 480;
}
);
},
{
glyphname = period;
lastChange = "2025-07-08 19:07:24 +0000";
layers = (
{
layerId = m002;
shapes = (
{
closed = 1;
nodes = (
(130,-16,o),
(157,11,o),
(157,51,cs),
(157,91,o),
(130,118,o),
(90,118,cs),
(50,118,o),
(23,91,o),
(23,51,cs),
(23,11,o),
(50,-16,o),
(90,-16,cs)
);
}
);
width = 180;
}
);
unicode = 46;
},
